<?xml version="1.0" encoding="UTF-8"?>
<!-- Generator: Adobe Illustrator 24.3.0, SVG Export Plug-In . SVG Version: 6.00 Build 0)  -->
<svg version="1.1" id="Layer_1" xmlns="http://www.w3.org/2000/svg" xmlns:xlink="http://www.w3.org/1999/xlink" x="0px" y="0px" viewBox="0 0 384 384" style="enable-background:new 0 0 384 384;" xml:space="preserve">
<style type="text/css">
	.st0{fill:#FF00FF;}
	.st1{fill:#FFFFFF;}
</style>
<path class="st1" d="M235.57,221.91c-2.84,3.4-5.68,7.51-9.22,10.88c-7.2,6.84-16.2,10.41-25.77,12.49  c-11.53,2.51-23.13,2.18-34.76,0.61c-14.52-1.95-27.27-7.83-38.38-17.22c-9.35-7.91-16.06-17.8-20.84-29.04  c-4.88-11.46-7.4-23.51-8.68-35.81c-1.85-17.78-0.99-35.42,4.33-52.6c4.37-14.11,11.01-27,21.08-38.03  C135,60.4,149.18,52.08,166.1,48.59c9.46-1.95,19.01-1.95,28.57-0.4c17,2.77,30.13,11.49,39.75,25.68c0.25,0.32,1.19,1.72,1.19,1.72  s0-4.78,0-6.83c-0.01-5.16,0-16.51,0-16.51s1.09,0,1.35,0c15.28-0.05,49.97-0.01,49.97-0.01s-0.01,1.96-0.01,4.28  c0,64.4,0.09,128.8-0.05,193.19c-0.04,20.36-5.79,39-18.84,54.95c-10.15,12.4-23.25,20.57-38.25,25.85  c-14.6,5.14-29.7,6.91-45.08,6.26c-16.81-0.71-32.99-4.35-47.75-12.64c-22.22-12.49-35.72-31.22-39.07-56.78  c-0.45-3.39-0.56-6.84-0.69-10.26c-0.01-0.21-0.07-1.31-0.07-1.31s1.04,0,1.26,0c15.24-0.07,30.48-0.08,45.72-0.03  c0.18,0,0.9,0.01,0.9,0.01s-0.01,0.96-0.01,1.12c0.16,8.86,2.62,16.86,8.77,23.44c4.59,4.91,10.26,8.16,16.7,9.89  c14.96,4.03,29.59,3.19,43.49-3.98c12.5-6.45,20.4-16.54,21.3-30.85c0.67-10.79,0.27-21.66,0.34-32.49  C235.57,222.35,235.57,221.79,235.57,221.91z"/>
<path class="st0" d="M150.77,149.82c-0.3-11.79,0.93-23.37,5.55-34.35c5.43-12.89,14.91-20.74,28.9-22.88  c9.67-1.48,19.08-0.85,27.99,3.47c8.9,4.32,14.39,11.7,17.99,20.64c3.53,8.75,5.33,17.94,5.46,27.31c0.12,8.38,0.09,16.89-1.2,25.14  c-2.59,16.57-14.09,32.08-31.73,36.4c-16.09,3.94-32.69-2.23-42.28-15.81c-6.74-9.53-9.85-20.21-10.66-31.68  C150.61,155.33,150.77,152.57,150.77,149.82z"/>
</svg>